<svg xmlns="http://www.w3.org/2000/svg" xmlns:xlink="http://www.w3.org/1999/xlink" width="677" height="380" viewBox="-680 618 677 380"><title>teardrop-pad-round</title><style type="text/css">
path, polyline, polygon {stroke-linejoin:round;}
path, polyline, polygon, line {stroke-linecap:round;}
rect, circle, ellipse, polyline, line, polygon, path {shape-rendering:auto;}
</style>
<g><rect locked="0" x="-330" y="748" width="60" height="80" stroke="none" stroke-width="1" fill="#FF0000"/><polyline points="-420 708 -330 748 -330 828 -420 868 -420 708" stroke="#000000" locked="0" stroke-width="1" stroke-dasharray="6,6" fill="#FF0000" stroke-linecap="round"/><ellipse cx="-510" cy="788" rx="120" ry="120" locked="0" stroke="#999999" stroke-width="1" fill="#999999"/><ellipse cx="-510" cy="788" rx="60" ry="60" locked="0" stroke="#333333" stroke-width="1" fill="#333333"/><polyline points="-420 708 -420 868" stroke="#000000" locked="0" stroke-width="1" stroke-dasharray="6,6" fill="none" stroke-linecap="round"/><polyline points="-230 868 -230 828" stroke="#000000" locked="0" stroke-width="1" fill="none" stroke-linecap="round"/><polyline points="-120 668 -120 748" stroke="#000000" locked="0" stroke-width="1" fill="none" stroke-linecap="round"/><polyline points="-120 908 -120 828" stroke="#000000" locked="0" stroke-width="1" fill="none" stroke-linecap="round"/><polyline points="-420 928 -400 928" stroke="#000000" locked="0" stroke-width="1" fill="none" stroke-linecap="round"/><polyline points="-330 928 -355 928" stroke="#000000" locked="0" stroke-width="1" fill="none" stroke-linecap="round"/><polyline points="-330 928 -340 923" stroke="#000000" locked="0" stroke-width="1" fill="none" stroke-linecap="round"/><polyline points="-330 928 -340 933" stroke="#000000" locked="0" stroke-width="1" fill="none" stroke-linecap="round"/><g locked="0"><text x="-171" y="798" fill="#0000FF" font-family="Verdana" font-size="26pt" font-weight="bolder" font-style="" dominant-baseline="" text-anchor="start" type="comment">100%</text></g><g locked="0"><text x="-249" y="800" fill="#0000FF" font-family="Verdana" font-size="26pt" font-weight="bolder" font-style="undefined" dominant-baseline="" text-anchor="start" type="comment">W</text></g><g locked="0"><text x="-390" y="941.015" fill="#0000FF" font-family="Verdana" font-size="26pt" font-weight="bolder" font-style="undefined" dominant-baseline="" text-anchor="start" type="comment">H</text></g><polyline points="-330 918 -330 938" stroke="#000000" locked="0" stroke-width="1" fill="none" stroke-linecap="round"/><polyline points="-420 928 -410 933" stroke="#000000" locked="0" stroke-width="1" fill="none" stroke-linecap="round"/><polyline points="-420 928 -410 923" stroke="#000000" locked="0" stroke-width="1" fill="none" stroke-linecap="round"/><polyline points="-420 938 -420 918" stroke="#000000" locked="0" stroke-width="1" fill="none" stroke-linecap="round"/><polyline points="-120 668 -125 678" stroke="#000000" locked="0" stroke-width="1" fill="none" stroke-linecap="round"/><polyline points="-120 668 -115 678" stroke="#000000" locked="0" stroke-width="1" fill="none" stroke-linecap="round"/><polyline points="-130 668 -110 668" stroke="#000000" locked="0" stroke-width="1" fill="none" stroke-linecap="round"/><polyline points="-120 908 -115 898" stroke="#000000" locked="0" stroke-width="1" fill="none" stroke-linecap="round"/><polyline points="-120 908 -125 898" stroke="#000000" locked="0" stroke-width="1" fill="none" stroke-linecap="round"/><polyline points="-110 908 -130 908" stroke="#000000" locked="0" stroke-width="1" fill="none" stroke-linecap="round"/><polyline points="-230 868 -225 858" stroke="#000000" locked="0" stroke-width="1" fill="none" stroke-linecap="round"/><polyline points="-230 868 -235 858" stroke="#000000" locked="0" stroke-width="1" fill="none" stroke-linecap="round"/><polyline points="-220 868 -240 868" stroke="#000000" locked="0" stroke-width="1" fill="none" stroke-linecap="round"/><polyline points="-230 708 -235 718" stroke="#000000" locked="0" stroke-width="1" fill="none" stroke-linecap="round"/><polyline points="-230 708 -225 718" stroke="#000000" locked="0" stroke-width="1" fill="none" stroke-linecap="round"/><polyline points="-240 708 -220 708" stroke="#000000" locked="0" stroke-width="1" fill="none" stroke-linecap="round"/><polyline points="-230 708 -230 748" stroke="#000000" locked="0" stroke-width="1" fill="none" stroke-linecap="round"/><polyline points="-130 668 -510 668" stroke="#000000" locked="0" stroke-width="1" fill="none" stroke-linecap="round"/><polyline points="-130 908 -510 908" stroke="#000000" locked="0" stroke-width="1" fill="none" stroke-linecap="round"/><polyline points="-240 708 -420 708" stroke="#000000" locked="0" stroke-width="1" fill="none" stroke-linecap="round"/><polyline points="-240 868 -420 868" stroke="#000000" locked="0" stroke-width="1" fill="none" stroke-linecap="round"/><polyline points="-330 918 -330 828" stroke="#000000" locked="0" stroke-width="1" fill="none" stroke-linecap="round"/><polyline points="-420 918 -420 868" stroke="#000000" locked="0" stroke-width="1" fill="none" stroke-linecap="round"/></g></svg>